<svg width="200" height="110" viewBox="0 0 200 110" fill="none" xmlns="http://www.w3.org/2000/svg">
<g filter="url(#filter0_i_164_54)">
<path d="M100.3 0C124.097 0.000189057 144.417 14.2673 152.466 34.3662C153.488 34.3071 154.52 34.2754 155.561 34.2754C180.103 34.2754 200 50.9868 200 71.6016C200 92.2165 180.103 108.929 155.561 108.929C144.841 108.929 135.009 105.74 127.333 100.432C119.322 104.687 110.107 107.111 100.3 107.111C90.7026 107.111 81.6708 104.79 73.7812 100.702C65.9536 106.488 55.6848 110 44.4385 110C19.8957 110 0 93.2877 0 72.6729C0.000292075 52.0582 19.8959 35.3469 44.4385 35.3467C45.54 35.3467 46.6325 35.3811 47.7139 35.4473C55.4574 14.7806 76.0781 0 100.3 0Z" fill="white"/>
<path d="M69.892 57.632C70.004 57.744 70.084 57.856 70.132 57.968C70.196 58.08 70.228 58.2 70.228 58.328C70.228 58.52 70.172 58.704 70.06 58.88C69.964 59.056 69.828 59.2 69.652 59.312C69.492 59.424 69.316 59.48 69.124 59.48C69.012 59.48 68.9 59.456 68.788 59.408C68.676 59.344 68.572 59.272 68.476 59.192C68.332 59.048 68.084 58.856 67.732 58.616C67.38 58.36 66.924 58.128 66.364 57.92C65.804 57.712 65.14 57.608 64.372 57.608C63.364 57.608 62.428 57.776 61.564 58.112C60.716 58.432 59.972 58.928 59.332 59.6C58.708 60.272 58.22 61.12 57.868 62.144C57.532 63.152 57.364 64.344 57.364 65.72C57.364 66.856 57.516 67.848 57.82 68.696C58.14 69.528 58.58 70.216 59.14 70.76C59.7 71.304 60.348 71.712 61.084 71.984C61.82 72.256 62.62 72.392 63.484 72.392C64.684 72.392 65.724 72.144 66.604 71.648C67.484 71.136 68.172 70.568 68.668 69.944C68.796 69.816 68.924 69.736 69.052 69.704C69.196 69.656 69.332 69.632 69.46 69.632C69.636 69.632 69.796 69.68 69.94 69.776C70.084 69.856 70.204 69.976 70.3 70.136C70.396 70.296 70.444 70.472 70.444 70.664C70.444 70.888 70.372 71.12 70.228 71.36C70.084 71.584 69.876 71.832 69.604 72.104C68.804 72.92 67.876 73.52 66.82 73.904C65.764 74.288 64.676 74.48 63.556 74.48C61.988 74.48 60.564 74.152 59.284 73.496C58.02 72.84 57.012 71.864 56.26 70.568C55.524 69.272 55.156 67.656 55.156 65.72C55.156 63.8 55.428 62.192 55.972 60.896C56.532 59.584 57.26 58.536 58.156 57.752C59.068 56.968 60.06 56.408 61.132 56.072C62.204 55.72 63.26 55.544 64.3 55.544C64.988 55.544 65.66 55.624 66.316 55.784C66.988 55.928 67.628 56.152 68.236 56.456C68.844 56.76 69.396 57.152 69.892 57.632ZM81.3919 67.712C81.3919 67.248 81.3519 66.736 81.2719 66.176C81.1919 65.6 81.0239 65.04 80.7679 64.496C80.5279 63.936 80.1519 63.464 79.6399 63.08C79.4799 62.952 79.3519 62.824 79.2559 62.696C79.1759 62.552 79.1359 62.368 79.1359 62.144C79.1359 61.824 79.2479 61.592 79.4719 61.448C79.7119 61.304 79.9599 61.232 80.2159 61.232C80.6639 61.232 81.0879 61.432 81.4879 61.832C81.8879 62.216 82.2479 62.72 82.5679 63.344C82.8879 63.968 83.1359 64.648 83.3119 65.384C83.5039 66.104 83.5999 66.8 83.5999 67.472C83.5999 68.72 83.3519 69.84 82.8559 70.832C82.3599 71.824 81.6639 72.616 80.7679 73.208C79.8719 73.784 78.8159 74.072 77.5999 74.072C76.7199 74.072 75.9599 73.904 75.3199 73.568C74.6799 73.232 74.1519 72.776 73.7359 72.2C73.3199 71.624 73.0079 70.984 72.7999 70.28C72.6079 69.56 72.5119 68.832 72.5119 68.096C72.5119 67.232 72.6399 66.368 72.8959 65.504C73.1519 64.64 73.5279 63.856 74.0239 63.152C74.5199 62.448 75.1199 61.888 75.8239 61.472C76.5279 61.04 77.3199 60.824 78.1999 60.824C78.5359 60.824 78.8959 60.864 79.2799 60.944C79.6639 61.008 79.9919 61.128 80.2639 61.304C80.5519 61.48 80.6959 61.736 80.6959 62.072C80.6959 62.344 80.5999 62.576 80.4079 62.768C80.2159 62.944 79.9359 63.032 79.5679 63.032C79.2959 63.032 79.0799 63 78.9199 62.936C78.7759 62.872 78.5359 62.84 78.1999 62.84C77.5919 62.84 77.0159 63.08 76.4719 63.56C75.9439 64.024 75.5119 64.632 75.1759 65.384C74.8559 66.136 74.6959 66.944 74.6959 67.808C74.6959 68.72 74.8079 69.496 75.0319 70.136C75.2719 70.76 75.6159 71.24 76.0639 71.576C76.5279 71.896 77.0799 72.056 77.7199 72.056C78.2639 72.056 78.8159 71.896 79.3759 71.576C79.9359 71.24 80.4079 70.752 80.7919 70.112C81.1919 69.472 81.3919 68.672 81.3919 67.712ZM87.4034 61.952C87.3874 61.68 87.4834 61.44 87.6914 61.232C87.8994 61.024 88.1714 60.92 88.5074 60.92C88.7634 60.92 88.9714 61 89.1314 61.16C89.3074 61.304 89.4354 61.576 89.5154 61.976C89.6114 62.36 89.6674 62.912 89.6834 63.632C90.1314 62.832 90.6754 62.184 91.3154 61.688C91.9714 61.192 92.6994 60.944 93.4994 60.944C94.3634 60.944 95.1394 61.192 95.8274 61.688C96.5154 62.168 97.0594 62.856 97.4594 63.752C97.8594 64.648 98.0594 65.712 98.0594 66.944C98.0594 67.632 98.0354 68.328 97.9874 69.032C97.9394 69.736 97.8914 70.44 97.8434 71.144C97.8114 71.848 97.7874 72.552 97.7714 73.256C97.7714 73.56 97.6594 73.808 97.4354 74C97.2114 74.176 96.9314 74.264 96.5954 74.264C96.2754 74.264 96.0194 74.176 95.8274 74C95.6354 73.808 95.5394 73.56 95.5394 73.256C95.5394 72.824 95.5554 72.376 95.5874 71.912C95.6194 71.448 95.6514 70.968 95.6834 70.472C95.7154 69.976 95.7474 69.472 95.7794 68.96C95.8114 68.448 95.8274 67.92 95.8274 67.376C95.8274 66.464 95.7234 65.688 95.5154 65.048C95.3234 64.392 95.0354 63.896 94.6514 63.56C94.2834 63.208 93.8194 63.032 93.2594 63.032C92.8274 63.032 92.4114 63.184 92.0114 63.488C91.6274 63.792 91.2754 64.192 90.9554 64.688C90.6514 65.184 90.3874 65.72 90.1634 66.296C89.9554 66.872 89.8114 67.424 89.7314 67.952C89.5714 68.992 89.4354 69.864 89.3234 70.568C89.2114 71.272 89.1234 71.848 89.0594 72.296C88.9954 72.744 88.9394 73.12 88.8914 73.424C88.8594 73.664 88.7554 73.848 88.5794 73.976C88.4034 74.104 88.1794 74.168 87.9074 74.168C87.6194 74.168 87.3794 74.12 87.1874 74.024C87.0114 73.944 86.8834 73.824 86.8034 73.664C86.7394 73.488 86.7234 73.296 86.7554 73.088C86.9154 72.128 87.0514 71.184 87.1634 70.256C87.2754 69.312 87.3554 68.392 87.4034 67.496C87.4674 66.584 87.4994 65.72 87.4994 64.904C87.4994 64.408 87.4914 63.992 87.4754 63.656C87.4754 63.304 87.4674 62.992 87.4514 62.72C87.4514 62.448 87.4354 62.192 87.4034 61.952ZM101.662 63.512C101.374 63.528 101.142 63.432 100.966 63.224C100.79 63 100.702 62.744 100.702 62.456C100.702 62.136 100.806 61.904 101.014 61.76C101.222 61.6 101.438 61.512 101.662 61.496L107.662 61.064C107.998 61.032 108.246 61.128 108.406 61.352C108.566 61.576 108.646 61.816 108.646 62.072C108.646 62.344 108.566 62.576 108.406 62.768C108.246 62.944 108.006 63.048 107.686 63.08L101.662 63.512ZM102.91 58.664C102.926 58.296 103.046 58.032 103.27 57.872C103.494 57.712 103.75 57.632 104.038 57.632C104.31 57.632 104.566 57.712 104.806 57.872C105.062 58.032 105.174 58.296 105.142 58.664C105.126 58.936 105.086 59.296 105.022 59.744C104.958 60.192 104.886 60.656 104.806 61.136C104.726 61.616 104.662 62.048 104.614 62.432C104.534 63.072 104.446 63.76 104.35 64.496C104.27 65.232 104.198 65.944 104.134 66.632C104.07 67.32 104.038 67.904 104.038 68.384C104.038 69.216 104.094 69.912 104.206 70.472C104.318 71.016 104.47 71.424 104.662 71.696C104.854 71.968 105.078 72.104 105.334 72.104C105.558 72.104 105.774 72.008 105.982 71.816C106.206 71.624 106.342 71.48 106.39 71.384C106.534 71.128 106.686 70.944 106.846 70.832C107.006 70.72 107.19 70.664 107.398 70.664C107.67 70.664 107.91 70.752 108.118 70.928C108.342 71.104 108.454 71.336 108.454 71.624C108.454 71.736 108.43 71.856 108.382 71.984C108.35 72.096 108.294 72.208 108.214 72.32C107.91 72.864 107.47 73.312 106.894 73.664C106.334 74.016 105.75 74.192 105.142 74.192C104.47 74.192 103.918 74.008 103.486 73.64C103.07 73.272 102.734 72.792 102.478 72.2C102.238 71.608 102.07 70.976 101.974 70.304C101.878 69.616 101.83 68.952 101.83 68.312C101.83 67.352 101.894 66.376 102.022 65.384C102.15 64.392 102.286 63.432 102.43 62.504C102.478 62.216 102.526 61.88 102.574 61.496C102.622 61.096 102.67 60.704 102.718 60.32C102.766 59.92 102.806 59.568 102.838 59.264C102.886 58.96 102.91 58.76 102.91 58.664ZM110.552 68.384C110.552 67.44 110.696 66.528 110.984 65.648C111.272 64.752 111.68 63.952 112.208 63.248C112.736 62.544 113.352 61.992 114.056 61.592C114.776 61.176 115.56 60.968 116.408 60.968C116.888 60.968 117.368 61.048 117.848 61.208C118.344 61.352 118.824 61.608 119.288 61.976C119.368 61.624 119.48 61.376 119.624 61.232C119.784 61.072 119.992 60.992 120.248 60.992C120.568 60.992 120.84 61.096 121.064 61.304C121.288 61.496 121.392 61.776 121.376 62.144C121.36 62.64 121.304 63.256 121.208 63.992C121.112 64.712 121.016 65.432 120.92 66.152C120.888 66.376 120.84 66.696 120.776 67.112C120.712 67.512 120.656 67.912 120.608 68.312C120.576 68.712 120.56 69.032 120.56 69.272C120.56 69.576 120.584 69.96 120.632 70.424C120.68 70.872 120.768 71.272 120.896 71.624C121.04 71.976 121.224 72.152 121.448 72.152C121.624 72.152 121.784 72.088 121.928 71.96C122.072 71.832 122.208 71.64 122.336 71.384C122.416 71.208 122.528 71.088 122.672 71.024C122.832 70.944 122.992 70.904 123.152 70.904C123.328 70.904 123.496 70.952 123.656 71.048C123.816 71.128 123.936 71.248 124.016 71.408C124.112 71.552 124.152 71.736 124.136 71.96C124.136 72.264 124.016 72.592 123.776 72.944C123.536 73.296 123.208 73.6 122.792 73.856C122.376 74.096 121.904 74.216 121.376 74.216C120.928 74.216 120.528 74.12 120.176 73.928C119.824 73.736 119.536 73.464 119.312 73.112C119.088 72.744 118.936 72.304 118.856 71.792C118.376 72.496 117.848 73.048 117.272 73.448C116.696 73.832 116.008 74.024 115.208 74.024C114.184 74.024 113.328 73.784 112.64 73.304C111.952 72.808 111.432 72.136 111.08 71.288C110.728 70.44 110.552 69.472 110.552 68.384ZM112.784 68.288C112.784 69.072 112.872 69.744 113.048 70.304C113.24 70.848 113.52 71.272 113.888 71.576C114.256 71.864 114.72 72.008 115.28 72.008C115.728 72.008 116.112 71.912 116.432 71.72C116.752 71.512 117.032 71.232 117.272 70.88C117.512 70.528 117.72 70.12 117.896 69.656C118.056 69.256 118.192 68.816 118.304 68.336C118.432 67.856 118.536 67.36 118.616 66.848C118.696 66.32 118.76 65.808 118.808 65.312C118.856 64.816 118.896 64.36 118.928 63.944C118.544 63.624 118.128 63.384 117.68 63.224C117.248 63.048 116.856 62.96 116.504 62.96C115.928 62.96 115.408 63.112 114.944 63.416C114.496 63.704 114.104 64.104 113.768 64.616C113.448 65.112 113.2 65.68 113.024 66.32C112.864 66.944 112.784 67.6 112.784 68.288ZM130.525 74.096C129.661 74.096 128.909 73.904 128.269 73.52C127.629 73.12 127.093 72.6 126.661 71.96C126.229 71.304 125.901 70.592 125.677 69.824C125.469 69.056 125.365 68.304 125.365 67.568C125.365 66.704 125.509 65.872 125.797 65.072C126.101 64.272 126.517 63.56 127.045 62.936C127.589 62.296 128.221 61.8 128.941 61.448C129.661 61.08 130.445 60.896 131.293 60.896C131.901 60.896 132.493 60.984 133.069 61.16C133.645 61.32 134.165 61.584 134.629 61.952C135.093 62.32 135.437 62.808 135.661 63.416C135.693 63.48 135.717 63.544 135.733 63.608C135.749 63.656 135.757 63.712 135.757 63.776C135.757 63.984 135.701 64.168 135.589 64.328C135.477 64.472 135.333 64.584 135.157 64.664C134.997 64.744 134.829 64.784 134.653 64.784C134.445 64.784 134.269 64.736 134.125 64.64C133.981 64.528 133.837 64.344 133.693 64.088C133.437 63.624 133.085 63.312 132.637 63.152C132.189 62.992 131.773 62.912 131.389 62.912C130.989 62.912 130.565 63.008 130.117 63.2C129.685 63.392 129.277 63.688 128.893 64.088C128.509 64.472 128.197 64.96 127.957 65.552C127.717 66.128 127.597 66.808 127.597 67.592C127.597 68.248 127.701 68.92 127.909 69.608C128.133 70.296 128.461 70.872 128.893 71.336C129.341 71.8 129.901 72.04 130.573 72.056C131.245 72.056 131.877 71.84 132.469 71.408C133.061 70.96 133.573 70.488 134.005 69.992C134.117 69.88 134.221 69.8 134.317 69.752C134.429 69.688 134.541 69.656 134.653 69.656C134.845 69.656 135.021 69.712 135.181 69.824C135.341 69.92 135.469 70.048 135.565 70.208C135.677 70.368 135.733 70.544 135.733 70.736C135.733 70.848 135.717 70.96 135.685 71.072C135.653 71.184 135.573 71.304 135.445 71.432C134.805 72.152 134.061 72.776 133.213 73.304C132.365 73.832 131.469 74.096 130.525 74.096ZM138.6 63.512C138.312 63.528 138.08 63.432 137.904 63.224C137.728 63 137.64 62.744 137.64 62.456C137.64 62.136 137.744 61.904 137.952 61.76C138.16 61.6 138.376 61.512 138.6 61.496L144.6 61.064C144.936 61.032 145.184 61.128 145.344 61.352C145.504 61.576 145.584 61.816 145.584 62.072C145.584 62.344 145.504 62.576 145.344 62.768C145.184 62.944 144.944 63.048 144.624 63.08L138.6 63.512ZM139.848 58.664C139.864 58.296 139.984 58.032 140.208 57.872C140.432 57.712 140.688 57.632 140.976 57.632C141.248 57.632 141.504 57.712 141.744 57.872C142 58.032 142.112 58.296 142.08 58.664C142.064 58.936 142.024 59.296 141.96 59.744C141.896 60.192 141.824 60.656 141.744 61.136C141.664 61.616 141.6 62.048 141.552 62.432C141.472 63.072 141.384 63.76 141.288 64.496C141.208 65.232 141.136 65.944 141.072 66.632C141.008 67.32 140.976 67.904 140.976 68.384C140.976 69.216 141.032 69.912 141.144 70.472C141.256 71.016 141.408 71.424 141.6 71.696C141.792 71.968 142.016 72.104 142.272 72.104C142.496 72.104 142.712 72.008 142.92 71.816C143.144 71.624 143.28 71.48 143.328 71.384C143.472 71.128 143.624 70.944 143.784 70.832C143.944 70.72 144.128 70.664 144.336 70.664C144.608 70.664 144.848 70.752 145.056 70.928C145.28 71.104 145.392 71.336 145.392 71.624C145.392 71.736 145.368 71.856 145.32 71.984C145.288 72.096 145.232 72.208 145.152 72.32C144.848 72.864 144.408 73.312 143.832 73.664C143.272 74.016 142.688 74.192 142.08 74.192C141.408 74.192 140.856 74.008 140.424 73.64C140.008 73.272 139.672 72.792 139.416 72.2C139.176 71.608 139.008 70.976 138.912 70.304C138.816 69.616 138.768 68.952 138.768 68.312C138.768 67.352 138.832 66.376 138.96 65.384C139.088 64.392 139.224 63.432 139.368 62.504C139.416 62.216 139.464 61.88 139.512 61.496C139.56 61.096 139.608 60.704 139.656 60.32C139.704 59.92 139.744 59.568 139.776 59.264C139.824 58.96 139.848 58.76 139.848 58.664Z" fill="#2C2C2C"/>
</g>
<defs>
<filter id="filter0_i_164_54" x="0" y="-14" width="200" height="124" filterUnits="userSpaceOnUse" color-interpolation-filters="sRGB">
<feFlood flood-opacity="0" result="BackgroundImageFix"/>
<feBlend mode="normal" in="SourceGraphic" in2="BackgroundImageFix" result="shape"/>
<feColorMatrix in="SourceAlpha" type="matrix" values="0 0 0 0 0 0 0 0 0 0 0 0 0 0 0 0 0 0 127 0" result="hardAlpha"/>
<feOffset dy="-24"/>
<feGaussianBlur stdDeviation="7"/>
<feComposite in2="hardAlpha" operator="arithmetic" k2="-1" k3="1"/>
<feColorMatrix type="matrix" values="0 0 0 0 0.658824 0 0 0 0 0.776471 0 0 0 0 0.905882 0 0 0 1 0"/>
<feBlend mode="normal" in2="shape" result="effect1_innerShadow_164_54"/>
</filter>
</defs>
</svg>
