<svg width="816" height="244" viewBox="0 0 816 244" fill="none" xmlns="http://www.w3.org/2000/svg">
<ellipse cx="182.321" cy="147.847" rx="182.321" ry="84.8475" fill="white"/>
<ellipse cx="633.321" cy="147.847" rx="182.321" ry="84.8475" fill="white"/>
<ellipse cx="403.5" cy="121.738" rx="229.179" ry="121.738" fill="white"/>
<path d="M204.218 100.999C204.432 99.9755 204.986 99.2715 205.882 98.8875C206.778 98.4608 207.696 98.2475 208.634 98.2475C210.384 98.2475 211.557 98.6101 212.154 99.3355C212.752 100.018 212.922 100.935 212.666 102.087C212.496 102.813 212.304 103.879 212.09 105.287C211.877 106.653 211.664 108.21 211.45 109.959C211.237 111.666 211.045 113.458 210.874 115.335C210.746 117.17 210.682 118.919 210.682 120.583C210.682 126.941 211.557 131.911 213.306 135.495C215.098 139.079 218.064 140.871 222.202 140.871C225.061 140.871 227.301 140.21 228.922 138.887C230.586 137.522 231.824 135.602 232.634 133.127C233.488 130.653 234.042 127.709 234.298 124.295C234.554 120.839 234.682 117.063 234.682 112.967C234.682 110.663 234.682 108.765 234.682 107.271C234.682 105.778 234.682 104.541 234.682 103.559C234.725 102.578 234.746 101.682 234.746 100.871C234.789 99.8048 235.237 99.0368 236.09 98.5675C236.944 98.0555 237.882 97.7995 238.906 97.7995C240.016 97.7995 241.018 98.0555 241.914 98.5675C242.81 99.0368 243.258 99.8048 243.258 100.871C243.216 101.639 243.173 102.663 243.13 103.943C243.13 105.223 243.13 106.567 243.13 107.975C243.13 109.341 243.13 110.621 243.13 111.815C243.13 113.01 243.13 113.906 243.13 114.503C243.13 117.618 243.002 120.797 242.746 124.039C242.533 127.282 242.021 130.397 241.21 133.383C240.442 136.327 239.29 138.994 237.754 141.383C236.261 143.73 234.256 145.607 231.738 147.015C229.221 148.381 226.064 149.063 222.266 149.063C218.213 149.063 214.864 148.359 212.218 146.951C209.573 145.501 207.504 143.495 206.01 140.935C204.56 138.375 203.536 135.41 202.938 132.039C202.341 128.626 202.042 124.978 202.042 121.095C202.042 118.621 202.149 116.103 202.362 113.543C202.618 110.941 202.917 108.53 203.258 106.311C203.6 104.093 203.92 102.322 204.218 100.999ZM253.304 115.335C253.475 114.525 253.816 113.906 254.328 113.479C254.84 113.053 255.416 112.754 256.056 112.583C256.739 112.413 257.315 112.327 257.784 112.327C258.894 112.327 259.811 112.605 260.536 113.159C261.262 113.671 261.624 114.354 261.624 115.207C261.624 115.506 261.582 115.954 261.496 116.551C261.411 117.149 261.326 117.789 261.24 118.471C261.155 119.154 261.091 119.837 261.048 120.519C262.414 117.959 264.056 116.018 265.976 114.695C267.939 113.373 270.179 112.711 272.696 112.711C276.323 112.711 278.99 114.077 280.696 116.807C282.403 119.495 283.256 123.058 283.256 127.495C283.256 129.117 283.171 130.695 283 132.231C282.872 133.767 282.68 135.282 282.424 136.775C282.211 138.226 282.019 139.634 281.848 140.999C281.72 142.322 281.656 143.581 281.656 144.775C281.656 146.141 281.23 147.079 280.376 147.591C279.523 148.103 278.606 148.359 277.624 148.359C276.387 148.359 275.278 148.125 274.296 147.655C273.358 147.143 272.888 146.311 272.888 145.159C272.888 143.581 272.952 142.087 273.08 140.679C273.251 139.229 273.443 137.821 273.656 136.455C273.912 135.047 274.104 133.618 274.232 132.167C274.403 130.717 274.488 129.202 274.488 127.623C274.488 125.703 274.275 124.231 273.848 123.207C273.464 122.183 272.952 121.479 272.312 121.095C271.672 120.711 270.947 120.519 270.136 120.519C268.942 120.519 267.832 120.967 266.808 121.863C265.784 122.759 264.824 123.954 263.928 125.447C263.075 126.941 262.328 128.583 261.688 130.375C261.688 133.575 261.624 136.413 261.496 138.887C261.411 141.319 261.347 143.346 261.304 144.967C261.262 146.034 260.728 146.845 259.704 147.399C258.723 147.954 257.528 148.231 256.12 148.231C254.414 148.231 253.262 147.698 252.664 146.631C252.11 145.565 251.832 144.327 251.832 142.919C251.832 141.682 251.854 140.359 251.896 138.951C251.939 137.501 252.024 136.029 252.152 134.535C252.323 133.042 252.515 131.655 252.728 130.375C252.686 128.157 252.664 126.279 252.664 124.743C252.664 123.207 252.686 121.906 252.728 120.839C252.771 119.73 252.835 118.749 252.92 117.895C253.006 117.042 253.134 116.189 253.304 115.335ZM291.719 100.743C291.719 99.7621 292.146 98.8448 292.999 97.9915C293.853 97.1381 295.154 96.7115 296.903 96.7115C297.799 96.7115 298.674 96.9248 299.527 97.3515C300.423 97.7355 301.149 98.3115 301.703 99.0795C302.258 99.8048 302.535 100.722 302.535 101.831C302.535 102.557 302.322 103.303 301.895 104.071C301.469 104.839 300.914 105.479 300.231 105.991C299.549 106.503 298.823 106.759 298.055 106.759C297.031 106.759 296.135 106.525 295.367 106.055C294.642 105.586 294.087 104.967 293.703 104.199C293.277 103.901 292.829 103.474 292.359 102.919C291.933 102.322 291.719 101.597 291.719 100.743ZM293.063 115.015C293.191 114.205 293.49 113.607 293.959 113.223C294.429 112.797 294.983 112.519 295.623 112.391C296.263 112.263 296.882 112.199 297.479 112.199C298.503 112.199 299.442 112.455 300.295 112.967C301.149 113.479 301.511 114.311 301.383 115.463C301.213 116.871 301.042 118.322 300.871 119.815C300.743 121.309 300.637 122.93 300.551 124.679C300.466 126.386 300.423 128.306 300.423 130.439C300.423 131.805 300.445 133.149 300.487 134.471C300.53 135.794 300.573 137.117 300.615 138.439C300.701 139.762 300.807 141.021 300.935 142.215C301.063 143.41 301.191 144.541 301.319 145.607C301.405 146.418 301.191 147.079 300.679 147.591C300.167 148.103 299.527 148.466 298.759 148.679C298.034 148.935 297.351 149.063 296.711 149.063C295.431 149.063 294.45 148.445 293.767 147.207C293.085 145.97 292.615 144.199 292.359 141.895C292.103 139.591 291.975 136.861 291.975 133.703C291.975 131.783 291.997 129.885 292.039 128.007C292.125 126.13 292.21 124.359 292.295 122.695C292.381 121.031 292.487 119.538 292.615 118.215C292.743 116.893 292.893 115.826 293.063 115.015ZM308.673 132.103C308.673 128.221 309.334 124.829 310.657 121.927C312.022 118.983 313.9 116.679 316.289 115.015C318.721 113.351 321.494 112.519 324.609 112.519C325.932 112.519 327.169 112.711 328.321 113.095C329.473 113.437 330.604 113.927 331.713 114.567C331.884 114.141 332.076 113.735 332.289 113.351C332.545 112.967 332.929 112.669 333.441 112.455C333.996 112.199 334.764 112.071 335.745 112.071C337.025 112.071 338.113 112.391 339.009 113.031C339.905 113.671 340.289 114.695 340.161 116.103C340.118 116.829 340.012 117.789 339.841 118.983C339.713 120.178 339.564 121.373 339.393 122.567C339.265 123.762 339.158 124.701 339.073 125.383C338.774 128.583 338.497 131.698 338.241 134.727C338.028 137.714 337.857 140.743 337.729 143.815C337.644 145.522 337.558 147.271 337.473 149.063C337.43 150.855 337.388 152.754 337.345 154.759C337.345 156.765 337.345 159.026 337.345 161.543C337.345 162.653 336.897 163.485 336.001 164.039C335.148 164.594 334.081 164.893 332.801 164.935C331.649 164.935 330.646 164.637 329.793 164.039C328.982 163.442 328.577 162.567 328.577 161.415C328.577 158.898 328.577 156.615 328.577 154.567C328.62 152.519 328.662 150.642 328.705 148.935C328.79 147.229 328.876 145.607 328.961 144.071C328.108 145.309 327.233 146.269 326.337 146.951C325.441 147.634 324.545 148.103 323.649 148.359C322.753 148.658 321.9 148.807 321.089 148.807C318.529 148.807 316.31 148.018 314.433 146.439C312.598 144.861 311.169 142.791 310.145 140.231C309.164 137.671 308.673 134.962 308.673 132.103ZM317.761 131.847C317.761 133.554 317.953 135.133 318.337 136.583C318.721 137.991 319.276 139.143 320.001 140.039C320.769 140.893 321.729 141.319 322.881 141.319C323.99 141.319 324.95 140.85 325.761 139.911C326.572 138.93 327.276 137.693 327.873 136.199C328.513 134.663 329.004 133.085 329.345 131.463C329.644 130.055 329.9 128.519 330.113 126.855C330.369 125.191 330.604 123.25 330.817 121.031C330.049 120.605 329.217 120.263 328.321 120.007C327.425 119.751 326.55 119.623 325.697 119.623C324.246 119.623 322.924 120.007 321.729 120.775C320.534 121.501 319.574 122.759 318.849 124.551C318.124 126.301 317.761 128.733 317.761 131.847ZM348.297 115.783C348.553 114.759 349.022 114.034 349.705 113.607C350.43 113.138 351.262 112.903 352.201 112.903C353.268 112.903 354.206 113.117 355.017 113.543C355.87 113.927 356.489 114.503 356.873 115.271C357.3 115.997 357.385 116.85 357.129 117.831C356.958 118.642 356.766 119.709 356.553 121.031C356.34 122.311 356.148 123.677 355.977 125.127C355.849 126.535 355.785 127.858 355.785 129.095C355.785 131.357 355.998 133.341 356.425 135.047C356.852 136.711 357.449 138.013 358.217 138.951C358.985 139.847 359.881 140.295 360.905 140.295C362.014 140.295 363.102 139.805 364.169 138.823C365.278 137.799 366.238 136.391 367.049 134.599C367.902 132.765 368.521 130.674 368.905 128.327C369.033 126.578 369.118 125.042 369.161 123.719C369.246 122.397 369.289 121.223 369.289 120.199C369.289 119.133 369.289 118.13 369.289 117.191C369.289 115.613 369.716 114.503 370.569 113.863C371.465 113.223 372.574 112.903 373.897 112.903C375.646 112.903 376.82 113.309 377.417 114.119C378.057 114.93 378.377 116.509 378.377 118.855C378.377 120.562 378.313 122.269 378.185 123.975C378.057 125.682 377.865 127.218 377.609 128.583C377.524 130.802 377.438 132.594 377.353 133.959C377.31 135.325 377.268 136.434 377.225 137.287C377.225 138.141 377.225 138.973 377.225 139.783C377.225 141.106 377.246 142.194 377.289 143.047C377.374 143.858 377.438 144.69 377.481 145.543C377.609 146.439 377.289 147.25 376.521 147.975C375.796 148.743 374.75 149.127 373.385 149.127C371.934 149.127 370.825 148.679 370.057 147.783C369.332 146.845 368.969 145.607 368.969 144.071C368.969 143.73 368.969 143.431 368.969 143.175C368.969 142.877 368.969 142.578 368.969 142.279C369.012 141.938 369.033 141.554 369.033 141.127C367.497 143.645 365.876 145.479 364.169 146.631C362.505 147.783 360.692 148.359 358.729 148.359C356.382 148.359 354.292 147.613 352.457 146.119C350.665 144.626 349.257 142.471 348.233 139.655C347.209 136.839 346.697 133.447 346.697 129.479C346.697 127.559 346.825 125.405 347.081 123.015C347.38 120.626 347.785 118.215 348.297 115.783ZM400.342 148.359C397.91 148.359 395.734 147.933 393.814 147.079C391.894 146.226 390.252 145.053 388.886 143.559C387.564 142.023 386.54 140.231 385.814 138.183C385.132 136.135 384.79 133.917 384.79 131.527C384.79 129.223 385.217 126.983 386.07 124.807C386.924 122.589 388.118 120.605 389.654 118.855C391.19 117.106 392.982 115.719 395.03 114.695C397.121 113.671 399.404 113.159 401.878 113.159C403.841 113.159 405.569 113.522 407.062 114.247C408.598 114.973 409.793 115.997 410.646 117.319C411.5 118.642 411.926 120.221 411.926 122.055C411.926 123.634 411.564 125.234 410.838 126.855C410.113 128.434 408.961 129.906 407.382 131.271C405.804 132.637 403.734 133.746 401.174 134.599C398.614 135.453 395.5 135.901 391.83 135.943L391.766 129.543C393.942 129.671 395.926 129.415 397.718 128.775C399.553 128.135 401.025 127.239 402.134 126.087C403.286 124.935 403.862 123.613 403.862 122.119C403.862 121.351 403.628 120.733 403.158 120.263C402.732 119.751 402.07 119.495 401.174 119.495C400.236 119.495 399.297 119.751 398.358 120.263C397.462 120.775 396.63 121.522 395.862 122.503C395.137 123.485 394.561 124.701 394.134 126.151C393.708 127.602 393.494 129.266 393.494 131.143C393.494 133.447 393.814 135.346 394.454 136.839C395.094 138.29 395.969 139.378 397.078 140.103C398.188 140.829 399.468 141.191 400.918 141.191C402.582 141.191 404.118 140.871 405.526 140.231C406.977 139.591 408.278 138.546 409.43 137.095C409.942 136.455 410.412 135.986 410.838 135.687C411.308 135.346 411.798 135.175 412.31 135.175C413.206 135.175 413.953 135.559 414.55 136.327C415.19 137.095 415.51 137.991 415.51 139.015C415.51 139.57 415.318 140.167 414.934 140.807C414.593 141.447 413.996 142.215 413.142 143.111C411.478 144.818 409.537 146.119 407.318 147.015C405.142 147.911 402.817 148.359 400.342 148.359ZM423.254 100.103C423.382 98.8235 423.745 97.9061 424.342 97.3515C424.939 96.7968 425.771 96.5195 426.838 96.5195C428.374 96.5195 429.569 96.9035 430.422 97.6715C431.318 98.4395 431.702 99.5061 431.574 100.871C431.489 101.767 431.297 103.773 430.998 106.887C430.742 109.959 430.486 113.863 430.23 118.599C430.017 123.293 429.91 128.498 429.91 134.215C429.91 136.178 429.91 138.098 429.91 139.975C429.953 141.853 429.995 143.517 430.038 144.967C430.123 146.333 429.761 147.271 428.95 147.783C428.182 148.295 427.286 148.551 426.262 148.551C425.579 148.551 424.875 148.445 424.15 148.231C423.467 148.018 422.891 147.677 422.422 147.207C421.953 146.738 421.718 146.119 421.718 145.351C421.675 143.687 421.633 141.895 421.59 139.975C421.547 138.055 421.526 136.114 421.526 134.151C421.526 128.306 421.675 122.567 421.974 116.935C422.315 111.303 422.742 105.693 423.254 100.103ZM439.797 116.487C440.01 115.25 440.522 114.333 441.333 113.735C442.144 113.138 443.082 112.839 444.149 112.839C445.344 112.839 446.325 113.138 447.093 113.735C447.904 114.29 448.309 115.229 448.309 116.551C448.309 117.149 448.224 117.917 448.053 118.855C447.882 119.751 447.69 120.989 447.477 122.567C447.306 124.103 447.221 126.151 447.221 128.711C447.221 130.546 447.349 132.317 447.605 134.023C447.861 135.687 448.288 137.053 448.885 138.119C449.482 139.186 450.314 139.719 451.381 139.719C452.234 139.719 453.024 139.485 453.749 139.015C454.517 138.546 455.2 137.906 455.797 137.095C456.437 136.242 456.992 135.282 457.461 134.215C457.93 133.106 458.314 131.975 458.613 130.823C458.656 130.439 458.677 129.799 458.677 128.903C458.677 127.965 458.656 126.941 458.613 125.831C458.613 124.722 458.613 123.698 458.613 122.759C458.613 121.821 458.613 121.138 458.613 120.711C458.613 119.261 458.848 117.917 459.317 116.679C459.786 115.399 460.469 114.375 461.365 113.607C462.261 112.797 463.349 112.391 464.629 112.391C466.037 112.391 467.04 112.989 467.637 114.183C468.234 115.378 468.533 116.701 468.533 118.151C468.533 119.389 468.448 120.839 468.277 122.503C468.106 124.125 467.872 125.767 467.573 127.431C467.274 129.095 466.954 130.589 466.613 131.911C466.613 135.111 466.634 138.098 466.677 140.871C466.72 143.602 466.698 146.397 466.613 149.255C466.4 154.503 464.885 158.642 462.069 161.671C459.296 164.743 455.349 166.279 450.229 166.279C448.181 166.279 446.261 165.959 444.469 165.319C442.677 164.722 441.141 163.762 439.861 162.439C439.264 161.885 438.752 161.223 438.325 160.455C437.898 159.687 437.685 158.962 437.685 158.279C437.685 157.81 437.877 157.298 438.261 156.743C438.688 156.231 439.2 155.783 439.797 155.399C440.394 155.058 440.97 154.887 441.525 154.887C442.378 154.887 443.082 155.165 443.637 155.719C444.234 156.274 444.874 156.807 445.557 157.319C446.154 157.789 446.837 158.151 447.605 158.407C448.373 158.663 449.333 158.791 450.485 158.791C452.448 158.791 453.962 158.343 455.029 157.447C456.096 156.551 456.864 155.335 457.333 153.799C457.802 152.263 458.101 150.514 458.229 148.551C458.357 146.631 458.421 144.626 458.421 142.535C456.928 144.626 455.392 146.055 453.813 146.823C452.277 147.549 450.784 147.911 449.333 147.911C447.242 147.911 445.493 147.357 444.085 146.247C442.72 145.138 441.632 143.687 440.821 141.895C440.053 140.061 439.498 138.077 439.157 135.943C438.816 133.767 438.645 131.655 438.645 129.607C438.645 126.749 438.773 124.189 439.029 121.927C439.328 119.666 439.584 117.853 439.797 116.487ZM497.258 101.127C497.344 100.231 497.749 99.4635 498.474 98.8235C499.2 98.1408 500.352 97.7995 501.93 97.7995C503.466 97.7995 504.597 98.1408 505.322 98.8235C506.048 99.4635 506.368 100.231 506.282 101.127C505.728 106.034 505.365 110.898 505.194 115.719C505.066 120.498 504.96 125.319 504.874 130.183C504.832 135.005 504.618 139.933 504.234 144.967C504.192 145.565 504.021 146.119 503.722 146.631C503.424 147.101 502.954 147.506 502.314 147.847C501.674 148.146 500.821 148.295 499.754 148.295C498.218 148.295 497.066 147.954 496.298 147.271C495.53 146.589 495.168 145.757 495.21 144.775C495.552 139.826 495.744 134.983 495.786 130.247C495.872 125.469 496 120.69 496.17 115.911C496.341 111.09 496.704 106.162 497.258 101.127ZM500.97 127.047C500.501 127.047 500.053 126.898 499.626 126.599C499.242 126.301 498.922 125.767 498.666 124.999C498.453 124.231 498.346 123.165 498.346 121.799C498.346 120.818 498.624 120.114 499.178 119.687C499.776 119.261 500.394 119.026 501.034 118.983C503.552 118.898 505.813 118.834 507.818 118.791C509.866 118.706 511.914 118.642 513.962 118.599C516.01 118.557 518.293 118.535 520.81 118.535C523.328 118.493 526.336 118.471 529.834 118.471C530.56 118.471 531.178 118.706 531.69 119.175C532.202 119.645 532.458 120.306 532.458 121.159C532.458 122.866 532.224 124.103 531.754 124.871C531.285 125.597 530.688 126.045 529.962 126.215C529.28 126.386 528.597 126.471 527.914 126.471C526.165 126.429 524.138 126.407 521.834 126.407C519.53 126.407 516.693 126.471 513.322 126.599C509.952 126.685 505.834 126.834 500.97 127.047ZM527.402 101.703C527.445 100.765 527.808 99.9755 528.49 99.3355C529.216 98.6528 530.389 98.3115 532.01 98.3115C533.546 98.3115 534.677 98.6528 535.402 99.3355C536.17 99.9755 536.533 100.765 536.49 101.703C536.405 103.239 536.32 104.733 536.234 106.183C536.192 107.634 536.128 109.191 536.042 110.855C535.829 116.786 535.658 122.61 535.53 128.327C535.445 134.045 535.402 139.869 535.402 145.799C535.402 146.653 535.04 147.421 534.314 148.103C533.589 148.786 532.458 149.127 530.922 149.127C529.301 149.127 528.128 148.786 527.402 148.103C526.72 147.421 526.378 146.653 526.378 145.799C526.378 138.205 526.464 130.802 526.634 123.591C526.805 116.381 527.061 109.085 527.402 101.703ZM559.164 147.975C556.433 147.975 554.065 147.506 552.06 146.567C550.055 145.586 548.391 144.306 547.068 142.727C545.788 141.106 544.828 139.293 544.188 137.287C543.548 135.282 543.228 133.255 543.228 131.207C543.228 128.989 543.655 126.791 544.508 124.615C545.404 122.439 546.641 120.455 548.22 118.663C549.799 116.829 551.655 115.378 553.788 114.311C555.964 113.202 558.332 112.647 560.892 112.647C563.068 112.647 564.924 113.031 566.46 113.799C567.996 114.525 569.169 115.549 569.98 116.871C570.791 118.194 571.196 119.773 571.196 121.607C571.196 123.527 570.748 125.277 569.852 126.855C568.999 128.391 567.783 129.671 566.204 130.695C564.199 132.061 562.023 133.042 559.676 133.639C557.372 134.237 554.919 134.621 552.316 134.791C552.7 135.773 553.212 136.733 553.852 137.671C554.492 138.567 555.303 139.314 556.284 139.911C557.308 140.466 558.503 140.743 559.868 140.743C561.404 140.743 562.812 140.359 564.092 139.591C565.372 138.781 566.503 137.842 567.484 136.775C567.911 136.306 568.295 136.007 568.636 135.879C569.02 135.709 569.361 135.623 569.66 135.623C570.215 135.623 570.748 135.815 571.26 136.199C571.815 136.541 572.284 136.989 572.668 137.543C573.095 138.055 573.351 138.61 573.436 139.207C573.521 139.719 573.457 140.231 573.244 140.743C573.031 141.213 572.775 141.597 572.476 141.895C570.897 143.602 568.956 145.053 566.652 146.247C564.391 147.399 561.895 147.975 559.164 147.975ZM551.932 128.391C553.297 128.306 554.471 128.199 555.452 128.071C556.433 127.901 557.543 127.559 558.78 127.047C559.932 126.578 560.935 125.895 561.788 124.999C562.641 124.103 563.068 123.037 563.068 121.799C563.068 121.33 562.961 120.903 562.748 120.519C562.535 120.093 562.193 119.751 561.724 119.495C561.297 119.239 560.743 119.111 560.06 119.111C559.036 119.111 558.055 119.41 557.116 120.007C556.22 120.605 555.409 121.373 554.684 122.311C553.959 123.25 553.361 124.253 552.892 125.319C552.423 126.386 552.103 127.41 551.932 128.391ZM581.184 116.295C581.227 115.485 581.483 114.823 581.952 114.311C582.464 113.757 583.083 113.373 583.808 113.159C584.576 112.903 585.323 112.775 586.048 112.775C587.157 112.775 588.096 113.053 588.864 113.607C589.632 114.162 589.973 115.058 589.888 116.295L589.568 121.287C590.933 118.77 592.469 116.914 594.176 115.719C595.925 114.482 597.845 113.863 599.936 113.863C601.088 113.863 602.155 114.077 603.136 114.503C604.16 114.887 604.992 115.57 605.632 116.551C606.272 117.533 606.592 118.919 606.592 120.711C606.592 121.565 606.443 122.375 606.144 123.143C605.845 123.911 605.376 124.551 604.736 125.063C604.139 125.533 603.349 125.767 602.368 125.767C601.344 125.767 600.555 125.426 600 124.743C599.445 124.018 599.147 123.101 599.104 121.991C598.805 121.863 598.443 121.799 598.016 121.799C597.632 121.799 597.056 121.97 596.288 122.311C595.563 122.61 594.752 123.186 593.856 124.039C593.003 124.893 592.149 126.109 591.296 127.687C590.443 129.266 589.696 131.335 589.056 133.895C589.056 134.365 589.056 135.069 589.056 136.007C589.056 136.903 589.035 137.906 588.992 139.015C588.992 140.082 588.971 141.085 588.928 142.023C588.928 142.962 588.907 143.687 588.864 144.199C588.864 144.839 588.736 145.501 588.48 146.183C588.224 146.866 587.755 147.442 587.072 147.911C586.389 148.381 585.387 148.615 584.064 148.615C582.699 148.615 581.696 148.402 581.056 147.975C580.416 147.549 579.989 147.015 579.776 146.375C579.563 145.693 579.456 144.967 579.456 144.199C579.456 143.005 579.499 141.682 579.584 140.231C579.712 138.781 579.861 137.394 580.032 136.071C580.203 134.706 580.352 133.597 580.48 132.743C580.608 130.055 580.715 127.346 580.8 124.615C580.885 121.885 581.013 119.111 581.184 116.295Z" fill="#2C2C2C"/>
</svg>
